<svg width="36" height="35" viewBox="0 0 36 35" fill="none" xmlns="http://www.w3.org/2000/svg">
<path d="M22.0996 4.79699C21.9869 4.74224 21.8714 4.69169 21.7601 4.63413C22.7137 5.11571 22.2926 4.86579 22.0531 4.76751C21.8207 4.67203 21.5869 4.58218 21.3489 4.50074C21.1108 4.41931 20.8728 4.34349 20.6305 4.27469C20.5699 4.25784 20.5094 4.24099 20.4488 4.22414C20.1812 4.15254 20.3685 4.20028 21.0094 4.36876C20.8869 4.34208 20.7657 4.3112 20.6418 4.28452C20.1699 4.18202 19.6952 4.11182 19.2163 4.05426C18.8431 4.00933 20.2446 4.1385 19.6051 4.09357C19.4797 4.08514 19.3544 4.07672 19.229 4.0711C18.9783 4.05987 18.7262 4.05566 18.4754 4.05706C18.2444 4.05987 18.0149 4.07391 17.7853 4.08093C18.9755 4.04864 18.0332 4.06549 17.7317 4.10199C17.2317 4.16377 16.7401 4.25644 16.25 4.36736C15.7485 4.47968 16.9768 4.15956 16.4852 4.30558C16.3655 4.34068 16.2443 4.37438 16.1232 4.41088C15.8838 4.4853 15.6457 4.56533 15.4105 4.65238C14.9288 4.83069 14.4597 5.0413 14.0019 5.27297C14.1963 5.17187 14.3921 5.07078 14.5865 4.96969C13.3949 5.59168 12.3117 6.38216 11.3483 7.31585C11.4863 7.18106 11.6243 7.04487 11.7624 6.91008C10.4567 8.2018 9.41576 9.72378 8.70163 11.4143C8.77065 11.2486 8.84107 11.0843 8.91009 10.9186C8.65515 11.5378 8.44669 12.1696 8.2833 12.8197C7.92131 14.2631 5.84232 14.4273 4.64366 14.1844C3.86333 14.0272 3.0027 13.766 2.41112 13.2086C2.00687 12.8281 1.53362 12.2749 1.68574 11.667C2.58157 8.0965 4.80563 4.91353 7.85651 2.83555C10.9863 0.702804 14.9316 -0.249138 18.6994 0.0555395C21.2714 0.263338 23.6997 0.890945 26.0196 2.02682C26.5365 2.27954 27.1858 2.86222 27.3309 3.45192C27.4675 4.00371 27.2041 4.57937 26.7351 4.88966C25.3688 5.79387 23.4771 5.47234 22.0996 4.79699Z" fill="white"/>
<path d="M30.3607 13.1904C30.4184 13.3013 30.4719 13.415 30.5311 13.5259C30.0268 12.5866 30.286 12.9994 30.3916 13.2367C30.4973 13.474 30.5874 13.6972 30.6762 13.9317C30.7649 14.1662 30.8452 14.4035 30.9198 14.6421C30.9381 14.7025 30.9565 14.7615 30.9748 14.8219C31.0536 15.0858 31.0001 14.9019 30.817 14.2659C30.8466 14.388 30.8804 14.5074 30.91 14.6295C31.0227 15.0971 31.1058 15.5688 31.1734 16.0448C31.2269 16.4155 31.0649 15.0226 31.1255 15.6587C31.1368 15.7836 31.148 15.9086 31.1565 16.0336C31.1734 16.2835 31.1832 16.5334 31.1875 16.7847C31.1903 17.015 31.1804 17.2438 31.1804 17.4741C31.1846 16.2863 31.1903 17.227 31.1607 17.5275C31.11 18.0273 31.0283 18.5187 30.9283 19.0115C30.8269 19.5142 31.1199 18.2814 30.9846 18.7757C30.9522 18.8964 30.9212 19.0171 30.8874 19.1379C30.8184 19.3794 30.7438 19.6181 30.6621 19.854C30.4931 20.3384 30.2944 20.8101 30.0719 21.272C30.1691 21.0755 30.2649 20.8789 30.3621 20.6823C29.7663 21.8842 28.9986 22.9822 28.083 23.9636C28.2154 23.8232 28.3479 23.6828 28.4803 23.541C27.2154 24.872 25.7125 25.9433 24.0335 26.6959C24.1969 26.6229 24.3617 26.5498 24.5251 26.4768C23.9096 26.745 23.28 26.9682 22.6334 27.1452C21.1953 27.5397 21.0784 29.6149 21.3489 30.8041C21.5249 31.5791 21.8066 32.43 22.3799 33.007C22.7715 33.4016 23.3363 33.8593 23.9434 33.6936C27.5027 32.7192 30.6452 30.4278 32.658 27.3417C34.7243 24.1728 35.5891 20.219 35.1961 16.4716C34.9285 13.9135 34.2426 11.5083 33.0509 9.22254C32.7847 8.71287 32.1861 8.07965 31.5917 7.94767C31.0353 7.82411 30.4635 8.09931 30.1635 8.57387C29.2873 9.95545 29.655 11.8327 30.3635 13.1918L30.3607 13.1904Z" fill="white"/>
<path d="M16.1105 30.8715C15.9851 30.8771 15.8584 30.8771 15.733 30.8827C16.7993 30.8266 16.3147 30.8855 16.0556 30.8799C15.8049 30.8743 15.5541 30.8617 15.3034 30.8406C15.0527 30.8209 14.8034 30.7929 14.5541 30.7592C14.4921 30.7507 14.4301 30.7423 14.3682 30.7325C14.0949 30.6904 14.2851 30.7227 14.94 30.8266C14.8175 30.8013 14.6935 30.7816 14.5696 30.7564C14.0977 30.6595 13.6329 30.5331 13.1723 30.3941C12.8131 30.2846 14.147 30.7297 13.5442 30.5149C13.4258 30.4727 13.3075 30.4292 13.1906 30.3829C12.9568 30.2916 12.7244 30.1947 12.4962 30.0922C12.2864 29.9982 12.0821 29.8915 11.8736 29.7932C12.9498 30.3014 12.0948 29.9069 11.8342 29.7525C11.4018 29.4955 10.9891 29.2119 10.5848 28.9128C10.1721 28.6082 11.1666 29.3958 10.775 29.0645C10.6792 28.983 10.582 28.9044 10.4877 28.823C10.2975 28.6587 10.113 28.4902 9.93268 28.3147C9.56365 27.9567 9.21997 27.5776 8.89601 27.1803C9.03404 27.3516 9.17068 27.5214 9.30871 27.6927C8.47064 26.6453 7.80017 25.4856 7.29732 24.243C7.36916 24.4227 7.441 24.601 7.51142 24.7807C6.83955 23.0734 6.50431 21.2622 6.53389 19.4285C6.53108 19.6083 6.52686 19.7866 6.52404 19.9663C6.54094 19.2966 6.60574 18.6338 6.71983 17.9753C6.97337 16.5095 5.13662 15.5225 3.94219 15.2613C3.16468 15.0914 2.27168 14.9847 1.50403 15.2557C0.980053 15.441 0.323675 15.757 0.216626 16.3747C-0.410171 20.0014 0.33636 23.8091 2.28577 26.9374C4.28589 30.1484 7.51001 32.6069 11.0806 33.8438C13.5174 34.6891 15.9936 35.092 18.5754 34.9867C19.1515 34.9629 19.9812 34.6919 20.353 34.2103C20.7009 33.7596 20.6939 33.1278 20.3896 32.6546C19.5065 31.2773 17.6458 30.8111 16.1105 30.8743V30.8715Z" fill="white"/>
</svg>
