<svg width="36" height="35" viewBox="0 0 36 35" fill="none" xmlns="http://www.w3.org/2000/svg">
<path d="M22.5455 4.79795C22.4305 4.74319 22.3127 4.69264 22.1992 4.63508C23.172 5.11666 22.7423 4.86674 22.498 4.76846C22.2609 4.67299 22.0224 4.58313 21.7796 4.50169C21.5367 4.42026 21.2939 4.34444 21.0467 4.27564C20.9849 4.25879 20.9231 4.24195 20.8614 4.2251C20.5883 4.15349 20.7794 4.20123 21.4333 4.36971C21.3082 4.34304 21.1847 4.31215 21.0582 4.28547C20.5768 4.18298 20.0926 4.11277 19.604 4.05521C19.2232 4.01028 20.653 4.13945 20.0006 4.09452C19.8727 4.0861 19.7448 4.07767 19.617 4.07206C19.3612 4.06082 19.104 4.05661 18.8482 4.05802C18.6125 4.06082 18.3783 4.07486 18.1441 4.08188C19.3583 4.04959 18.397 4.06644 18.0895 4.10294C17.5794 4.16472 17.0779 4.25739 16.5778 4.36831C16.0662 4.48063 17.3193 4.16051 16.8178 4.30653C16.6956 4.34163 16.572 4.37533 16.4485 4.41183C16.2042 4.48625 15.9613 4.56628 15.7214 4.65333C15.2299 4.83164 14.7514 5.04225 14.2844 5.27392C14.4827 5.17283 14.6825 5.07174 14.8808 4.97064C13.6651 5.59264 12.5601 6.38311 11.5772 7.3168C11.718 7.18201 11.8588 7.04582 11.9997 6.91103C10.6676 8.20275 9.6057 9.72474 8.87716 11.4152C8.94757 11.2495 9.01942 11.0853 9.08983 10.9196C8.82974 11.5388 8.61707 12.1706 8.45039 12.8207C8.08109 14.264 5.96014 14.4283 4.7373 14.1854C3.94122 14.0281 3.06325 13.767 2.45973 13.2096C2.04732 12.8291 1.5645 12.2759 1.71969 11.6679C2.6336 8.09745 4.90255 4.91448 8.01499 2.8365C11.2079 0.703756 15.2328 -0.248186 19.0767 0.0550875C21.7005 0.262886 24.1778 0.890494 26.5445 2.02636C27.0719 2.27909 27.7343 2.86177 27.8823 3.45147C28.0217 4.00326 27.753 4.57892 27.2745 4.88921C25.8806 5.79341 23.9508 5.47189 22.5455 4.79654V4.79795Z" fill="#231F20"/>
<path d="M30.9732 13.1913C31.0321 13.3023 31.0867 13.416 31.1471 13.5269C30.6326 12.5876 30.897 13.0004 31.0048 13.2377C31.1126 13.475 31.2046 13.6982 31.2951 13.9327C31.3856 14.1671 31.4675 14.4044 31.5437 14.6431C31.5624 14.7035 31.581 14.7625 31.5997 14.8228C31.6802 15.0868 31.6256 14.9029 31.4388 14.2668C31.469 14.389 31.5034 14.5083 31.5336 14.6305C31.6486 15.098 31.7334 15.5698 31.8023 16.0458C31.8569 16.4164 31.6917 15.0236 31.7535 15.6596C31.765 15.7846 31.7765 15.9096 31.7851 16.0345C31.8023 16.2844 31.8124 16.5344 31.8167 16.7857C31.8196 17.016 31.8095 17.2448 31.8095 17.4751C31.8138 16.2873 31.8196 17.228 31.7894 17.5284C31.7377 18.0283 31.6543 18.5197 31.5523 19.0125C31.4488 19.5152 31.7477 18.2824 31.6098 18.7766C31.5767 18.8974 31.5451 19.0181 31.5106 19.1389C31.4402 19.3804 31.3641 19.6191 31.2807 19.8549C31.1083 20.3393 30.9057 20.8111 30.6786 21.273C30.7778 21.0764 30.8755 20.8799 30.9746 20.6833C30.3668 21.8852 29.5837 22.9831 28.6497 23.9646C28.7847 23.8242 28.9198 23.6838 29.0549 23.5419C27.7645 24.873 26.2313 25.9443 24.5184 26.6968C24.6851 26.6238 24.8532 26.5508 25.0199 26.4778C24.392 26.746 23.7496 26.9692 23.0901 27.1461C21.6229 27.5407 21.5037 29.6158 21.7796 30.8051C21.9592 31.5801 22.2466 32.4309 22.8314 33.008C23.2309 33.4025 23.8071 33.8603 24.4264 33.6946C28.0576 32.7202 31.2635 30.4288 33.3169 27.3427C35.4249 24.1738 36.3072 20.22 35.9063 16.4726C35.6332 13.9144 34.9334 11.5093 33.7178 9.22351C33.4462 8.71384 32.8355 8.08062 32.2291 7.94864C31.6615 7.82508 31.0781 8.10028 30.772 8.57484C29.8782 9.95642 30.2533 11.8336 30.9761 13.1927L30.9732 13.1913Z" fill="#231F20"/>
<path d="M16.4356 30.8725C16.3077 30.8781 16.1784 30.8781 16.0505 30.8837C17.1383 30.8276 16.6439 30.8865 16.3795 30.8809C16.1238 30.8753 15.868 30.8627 15.6122 30.8416C15.3564 30.8219 15.1021 30.7939 14.8477 30.7602C14.7845 30.7517 14.7213 30.7433 14.6581 30.7335C14.3793 30.6914 14.5733 30.7237 15.2415 30.8276C15.1165 30.8023 14.99 30.7826 14.8636 30.7574C14.3822 30.6605 13.908 30.5341 13.4381 30.3951C13.0717 30.2856 14.4325 30.7307 13.8175 30.5159C13.6968 30.4737 13.576 30.4302 13.4568 30.3839C13.2182 30.2926 12.9811 30.1957 12.7484 30.0932C12.5343 29.9992 12.3259 29.8925 12.1132 29.7942C13.2111 30.3024 12.3388 29.9079 12.073 29.7535C11.6318 29.4965 11.2108 29.2129 10.7984 28.9138C10.3774 28.6092 11.3919 29.3968 10.9924 29.0655C10.8947 28.9841 10.7955 28.9054 10.6993 28.824C10.5053 28.6597 10.317 28.4912 10.1331 28.3157C9.75662 27.9577 9.40601 27.5786 9.07551 27.1813C9.21633 27.3526 9.35571 27.5224 9.49653 27.6937C8.64155 26.6463 7.95756 25.4866 7.44456 24.244C7.51785 24.4237 7.59113 24.602 7.66298 24.7817C6.97755 23.0744 6.63556 21.2632 6.66574 19.4295C6.66286 19.6093 6.65855 19.7876 6.65568 19.9673C6.67292 19.2976 6.73902 18.6348 6.85541 17.9763C7.11407 16.5105 5.24028 15.5235 4.02174 15.2623C3.22854 15.0924 2.31751 14.9857 1.53437 15.2567C0.999827 15.442 0.330207 15.758 0.220998 16.3757C-0.418446 20.0024 0.343139 23.8101 2.33188 26.9384C4.37236 30.1494 7.66154 32.6079 11.3042 33.8448C13.7902 34.6901 16.3163 35.093 18.9503 34.9877C19.538 34.9639 20.3843 34.6929 20.7637 34.2113C21.1186 33.7606 21.1114 33.1288 20.8011 32.6556C19.9001 31.2783 18.0019 30.8121 16.4356 30.8753V30.8725Z" fill="#231F20"/>
</svg>
